#N canvas 463 11 798 808 10;
#X obj 21 185 print;
#X msg 71 39 listen 0;
#X obj 71 129 oscparse;
#X obj 71 156 list trim;
#X floatatom 724 125 5 0 0 0 - - -, f 5;
#X floatatom 567 130 5 0 0 0 - - -, f 5;
#X msg 95 69 listen 9129;
#X msg 356 157 1;
#X msg 361 126 set \$1;
#X msg 421 124 set \$1;
#X msg 423 157 2;
#X text 379 27 0 for test 1 for pad/ 1 for on off \, 2 for xy 2 for
pwm 3 for wave 4 for something 5 for reverb;
#X floatatom 619 129 5 0 0 0 - - -, f 5;
#X floatatom 673 128 5 0 0 0 - - -, f 5;
#X floatatom 586 204 5 0 0 0 - - -, f 5;
#X obj 573 166 / 2;
#X floatatom 666 207 5 0 0 0 - - -, f 5;
#X obj 653 169 / 2;
#X obj 377 73 unpack s s s f f f f;
#X msg 480 125 set \$1;
#X msg 482 158 1;
#X obj 71 187 route nething;
#X obj 71 218 route pad;
#X obj 176 373 route xy;
#X obj 35 375 route trig;
#X floatatom 331 452 5 0 0 0 - - -, f 5;
#X floatatom 174 441 5 0 0 0 - - -, f 5;
#X floatatom 226 440 5 0 0 0 - - -, f 5;
#X floatatom 270 439 5 0 0 0 - - -, f 5;
#X floatatom 202 495 5 0 0 0 - - -, f 5;
#X obj 178 404 unpack f f f f;
#X obj 205 720 dac~;
#X obj 169 630 *~;
#X obj 194 594 sig~;
#X obj 245 678 *~;
#X obj 174 678 *~;
#X obj 290 634 cos~;
#X obj 219 632 cos~;
#X obj 307 603 + 0.75;
#X text 437 523 range: 0.->.25;
#N canvas 0 50 798 808 fly 0;
#X obj 272 608 outlet~;
#X obj 272 578 *~ 0.007;
#X obj 271 544 bp~ 2000 0.3;
#X obj 270 506 *~;
#X obj 249 468 /~;
#X obj 183 415 sig~ 1;
#X obj 438 361 / 500;
#X obj 264 443 +~ 1;
#X obj 264 415 *~;
#X obj 265 365 +~ 1;
#X obj 264 388 *~ 16;
#X obj 449 193 *~;
#X obj 265 341 *~ -4;
#X obj 265 320 *~;
#X obj 512 148 +~ 1;
#X obj 265 293 -~ 0.5;
#X obj 266 269 phasor~ 640;
#X obj 267 245 +~ 284;
#X obj 268 222 *~ 2000;
#X obj 364 163 line, f 8;
#X obj 363 186 * 4;
#X msg 423 131 280 60;
#X msg 351 128 0 20;
#X obj 369 97 sel 0 1;
#X obj 435 17 inlet;
#X obj 265 197 lop~ 2;
#X obj 261 169 lop~ 2;
#X obj 243 85 noise~;
#X connect 1 0 0 0;
#X connect 2 0 1 0;
#X connect 3 0 2 0;
#X connect 4 0 3 0;
#X connect 5 0 4 0;
#X connect 6 0 3 1;
#X connect 7 0 4 1;
#X connect 8 0 7 0;
#X connect 9 0 10 0;
#X connect 10 0 8 0;
#X connect 10 0 8 1;
#X connect 11 0 14 0;
#X connect 12 0 9 0;
#X connect 13 0 12 0;
#X connect 15 0 13 0;
#X connect 15 0 13 1;
#X connect 16 0 15 0;
#X connect 17 0 16 0;
#X connect 18 0 17 0;
#X connect 19 0 20 0;
#X connect 19 0 17 1;
#X connect 19 0 6 0;
#X connect 20 0 18 1;
#X connect 21 0 19 0;
#X connect 22 0 19 0;
#X connect 23 0 22 0;
#X connect 23 1 21 0;
#X connect 24 0 23 0;
#X connect 25 0 18 0;
#X connect 26 0 25 0;
#X connect 27 0 26 0;
#X restore 85 536 pd fly;
#X floatatom 75 439 5 0 0 0 - - -, f 5;
#X obj 70 98 netreceive -u -b 9129;
#X obj 35 403 unpack f;
#X floatatom 295 571 5 0 0 0 - - -, f 5;
#X obj 174 474 * 4;
#X obj 261 544 / 4000;
#X floatatom 346 524 5 0 0 0 - - -, f 5;
#X obj 331 491 / 1000;
#X text 69 14 OSC Input from neThing;
#X obj 158 216 route bars;
#X obj 295 266 route gain;
#X obj 315 300 unpack f f f;
#X floatatom 310 341 5 0 0 0 - - -, f 5;
#X floatatom 354 343 5 0 0 0 - - -, f 5;
#X floatatom 395 344 5 0 0 0 - - -, f 5;
#X connect 1 0 42 0;
#X connect 2 0 3 0;
#X connect 3 0 0 0;
#X connect 3 0 21 0;
#X connect 5 0 15 0;
#X connect 6 0 42 0;
#X connect 8 0 7 0;
#X connect 9 0 10 0;
#X connect 12 0 17 0;
#X connect 15 0 14 0;
#X connect 17 0 16 0;
#X connect 18 0 8 0;
#X connect 18 1 9 0;
#X connect 18 2 19 0;
#X connect 18 3 5 0;
#X connect 18 4 12 0;
#X connect 18 5 13 0;
#X connect 18 6 4 0;
#X connect 19 0 20 0;
#X connect 21 0 22 0;
#X connect 21 0 50 0;
#X connect 22 0 24 0;
#X connect 22 0 23 0;
#X connect 23 0 30 0;
#X connect 24 0 43 0;
#X connect 25 0 48 0;
#X connect 26 0 45 0;
#X connect 27 0 48 1;
#X connect 28 0 46 0;
#X connect 30 0 26 0;
#X connect 30 1 27 0;
#X connect 30 2 28 0;
#X connect 30 3 25 0;
#X connect 32 0 35 0;
#X connect 32 0 34 0;
#X connect 33 0 32 1;
#X connect 34 0 31 1;
#X connect 35 0 31 0;
#X connect 36 0 34 1;
#X connect 37 0 35 1;
#X connect 38 0 36 0;
#X connect 40 0 32 0;
#X connect 42 0 2 0;
#X connect 43 0 41 0;
#X connect 43 0 40 0;
#X connect 45 0 29 0;
#X connect 45 0 46 1;
#X connect 46 0 44 0;
#X connect 46 0 37 0;
#X connect 46 0 38 0;
#X connect 48 0 47 0;
#X connect 48 0 33 0;
#X connect 50 0 51 0;
#X connect 51 0 52 0;
#X connect 52 0 53 0;
#X connect 52 1 54 0;
#X connect 52 2 55 0;
